<svg xmlns="http://www.w3.org/2000/svg" xmlns:xlink="http://www.w3.org/1999/xlink" width="31" height="32" viewBox="0 0 31 32">
    <defs>
        <path id="a" d="M20.484 3.505h4.048a3.505 3.505 0 0 1 3.504 3.504v12.85a3.505 3.505 0 0 1-3.504 3.504H3.505A3.505 3.505 0 0 1 0 19.86V7.009a3.505 3.505 0 0 1 3.505-3.504h4.047L9.542.52c.216-.325.581-.52.972-.52h7.009c.39 0 .755.195.972.52l1.99 2.985zM11.14 2.336l-1.99 2.985c-.216.325-.581.52-.972.52H3.505c-.646 0-1.169.523-1.169 1.168v12.85c0 .645.523 1.168 1.169 1.168h21.027c.645 0 1.168-.523 1.168-1.168V7.009c0-.645-.523-1.168-1.168-1.168h-4.673c-.39 0-.755-.195-.972-.52l-1.99-2.985H11.14zm2.88 16.355a5.84 5.84 0 1 1 0-11.682 5.84 5.84 0 0 1 0 11.682zm0-2.337a3.505 3.505 0 1 0 0-7.009 3.505 3.505 0 0 0 0 7.01z"/>
    </defs>
    <use fill="#FFF" fill-rule="nonzero" opacity=".562" transform="rotate(-48 17.468 12.796)" xlink:href="#a"/>
</svg>
