<svg xmlns="http://www.w3.org/2000/svg" width="42" height="26" viewBox="0 0 42 26">
    <path fill="#FEFEFE" fill-rule="evenodd" stroke="#ED3B3A" stroke-width="3" d="M10.959 19.01c1.016-3.95 4.228-7.024 8.254-7.827.69-.145 1.395-.218 2.123-.218.653 0 1.305.055 1.923.182 4.118.746 7.4 3.84 8.436 7.863H10.959zm26.649 0h-.253c-1.162-6.898-6.658-12.324-13.571-13.378.037-1.165-.055-1.966-.236-2.385-.272-.6-.69-1-1.27-1.183-.562-.164-1.16-.127-1.76.146-.615.273-1.032.691-1.27 1.256-.197.473-.307 1.183-.344 2.166C11.957 6.669 6.46 12.094 5.298 19.01h-.252a2.598 2.598 0 0 0-2.594 2.603v.255a2.597 2.597 0 0 0 2.594 2.603h32.562a2.609 2.609 0 0 0 2.594-2.603v-.255a2.61 2.61 0 0 0-2.594-2.603z"/>
</svg>
