<svg xmlns="http://www.w3.org/2000/svg" width="12" height="12" viewBox="0 0 12 12">
    <g fill="#A1A1A1" fill-rule="evenodd">
        <path d="M10.143 3.913c-.19.218-.484.437-.862.63a.327.327 0 0 0-.179.291v5.351c0 .178-.15.328-.328.328H2.865a.332.332 0 0 1-.328-.328v-5.35a.327.327 0 0 0-.178-.293c-.378-.192-.673-.411-.862-.629-.19-.219-.273-.423-.273-.621 0-.21.092-.43.307-.663.318-.348.905-.687 1.656-.924.75-.24 1.663-.383 2.633-.383 1.292-.001 2.484.257 3.325.65.42.196.751.426.964.657.214.234.306.453.307.663 0 .198-.083.402-.273.621zM8.651 1.08C7.828.817 6.854.666 5.82.665c-1.38.001-2.65.269-3.603.712-.477.223-.876.49-1.169.807-.291.314-.48.693-.48 1.108 0 .392.17.753.434 1.053.228.26.55.484.879.682v5.158c0 .544.44.985.984.985h5.91c.543 0 .984-.44.984-.985V5.027c.328-.198.65-.422.878-.682.265-.3.435-.661.435-1.053 0-.415-.189-.794-.48-1.108-.44-.474-1.117-.841-1.94-1.105z"/>
        <path d="M6.875 3.797L4.417 6.549a.299.299 0 0 0 0 .389.227.227 0 0 0 .348 0l2.457-2.752a.299.299 0 0 0 0-.389.227.227 0 0 0-.347 0M6.875 5.998L4.417 8.75a.299.299 0 0 0 0 .39.227.227 0 0 0 .348 0l2.457-2.753a.299.299 0 0 0 0-.389.227.227 0 0 0-.347 0"/>
    </g>
</svg>
