<svg xmlns="http://www.w3.org/2000/svg" xmlns:xlink="http://www.w3.org/1999/xlink" width="20" height="20" viewBox="0 0 20 20">
    <defs>
        <path id="a" d="M12.543 19.091l-5.746-3.195-5.005 3.18c-.51.325-1.146-.085-1.146-.739V4.711c0-.305.147-.588.386-.74L6.381.574A.705.705 0 0 1 7.129.55l5.746 3.195L17.88.566c.51-.325 1.146.085 1.146.739V14.93a.873.873 0 0 1-.386.739l-5.35 3.399a.705.705 0 0 1-.747.022zm-.41-13.853L7.538 2.683v11.721l4.595 2.555V5.238zm1.532-.033V16.87l3.83-2.434V2.772l-3.83 2.433zM6.007 2.772l-3.83 2.433V16.87l3.83-2.434V2.772z"/>
    </defs>
    <use fill="#FFF" fill-rule="nonzero" transform="translate(.08)" xlink:href="#a"/>
</svg>
