<svg xmlns="http://www.w3.org/2000/svg" width="12" height="13" viewBox="0 0 12 13">
    <g fill="#ED3B3A" fill-rule="evenodd">
        <path d="M10.312 11.497h-2.24V4.563l1.12-1.12 1.12 1.12v6.934zM7.544 4.029H1.879l.746-.747h5.666l-.747.747zM1.35 11.497h5.974V4.776H1.351v6.72zM2.844 1.423c0-.21.168-.381.374-.381h5.227c.206 0 .374.172.374.38v1.113H2.844V1.423zm6.721 1.336V1.423c0-.62-.501-1.128-1.12-1.128H3.218c-.619 0-1.12.508-1.12 1.128v1.336L.712 4.145a.37.37 0 0 0-.11.265v7.468c0 .097.04.19.11.257.07.071.166.109.264.109h9.709a.369.369 0 0 0 .264-.109.36.36 0 0 0 .109-.257V4.41a.37.37 0 0 0-.11-.265L9.566 2.759z"/>
        <path d="M3.675 8.256c.131-.265.412-.594.663-.87.134.15.275.306.4.47.108.138.202.28.263.4.062.12.085.216.084.261-.001.411-.336.743-.747.747a.752.752 0 0 1-.747-.747.63.63 0 0 1 .084-.261zm.663 1.755A1.499 1.499 0 0 0 5.83 8.517a1.349 1.349 0 0 0-.164-.6c-.278-.539-.791-1.039-1.053-1.33a.372.372 0 0 0-.552 0c-.173.19-.463.485-.715.81a3.344 3.344 0 0 0-.338.52 1.349 1.349 0 0 0-.165.6c.001.822.67 1.49 1.494 1.494z"/>
    </g>
</svg>
