<svg xmlns="http://www.w3.org/2000/svg" width="13" height="16" viewBox="0 0 13 16">
    <path fill="#AEAEAE" fill-rule="evenodd" d="M9.841 12.226a4.862 4.862 0 0 1-1.385.722c.021-.033.045-.061.066-.09.58-.897.904-2.167.906-3.792a.47.47 0 0 0-.472-.472.47.47 0 0 0-.473.472c.002 1.502-.308 2.593-.753 3.278-.333.5-.663.784-1.136.902V10.01a.47.47 0 0 0-.472-.472.47.47 0 0 0-.472.472v3.24c0-.005-.055-.01-.084-.015-.389-.099-.865-.548-1.218-1.294-.355-.746-.587-1.756-.587-2.885v-.014a.47.47 0 0 0-.47-.468c-.261 0-.38.01-.381.482h-.094c0 1.256.254 2.394.68 3.291.107.222.226.435.357.629a4.682 4.682 0 0 1-1.79-1.157c-.706-.742-1.136-1.7-1.136-2.763v-.014c0-2.017 1.164-3.755 2.848-4.61C4.87 3.882 5.65 2.8 5.65 1.526V1.51a.47.47 0 0 1 .472-.473.47.47 0 0 1 .472.473v.014c0 1.275.779 2.356 1.874 2.909a5.19 5.19 0 0 1 2.849 4.632c-.006 1.436-.56 2.447-1.476 3.16zm-.946-8.633c-.824-.42-1.356-1.19-1.356-2.068V1.51a1.416 1.416 0 1 0-2.834 0v.014c0 .878-.533 1.648-1.357 2.068C1.36 4.6-.017 6.658-.017 9.038v.019c0 1.322.54 2.517 1.396 3.414a5.667 5.667 0 0 0 3.313 1.686c.12.019.236.024.354.038l-.202.203c-.185.184-.185.548 0 .732.184.184.485.066.67.066h-.002l.61-.675.61.576c.185.184.484.17.668-.014a.48.48 0 0 0 0-.676l-.204-.212c1.224-.142 2.34-.543 3.221-1.218 1.136-.87 1.85-2.22 1.844-3.91a6.129 6.129 0 0 0-3.366-5.474z"/>
</svg>
